<?xml version="1.0" encoding="utf-8"?>
<svg viewBox="-200 100 700 700" xmlns="http://www.w3.org/2000/svg">
  <rect x="100" y="100" width="100" height="100" style="stroke: rgb(0, 0, 0); fill: rgb(71, 139, 230);"/>
  <rect x="200" y="100" width="100" height="100" style="stroke: rgb(0, 0, 0); fill: rgb(71, 139, 230);"/>
  <rect x="300" y="200" width="100" height="100" style="stroke: rgb(0, 0, 0); fill: rgb(71, 139, 230);"/>
  <rect x="300" y="300" width="100" height="100" style="stroke: rgb(0, 0, 0); fill: rgb(71, 139, 230);"/>
  <rect x="200" y="400" width="100" height="100" style="stroke: rgb(0, 0, 0); fill: rgb(71, 139, 230);"/>
  <rect x="100" y="400" width="100" height="100" style="stroke: rgb(0, 0, 0); fill: rgb(71, 139, 230);"/>
  <rect y="100" width="100" height="100" style="stroke: rgb(0, 0, 0); fill: rgb(71, 139, 230);" x="-100"/>
  <rect y="200" width="100" height="100" style="stroke: rgb(0, 0, 0); fill: rgb(71, 139, 230);" x="-100"/>
  <rect y="300" width="100" height="100" style="stroke: rgb(0, 0, 0); fill: rgb(71, 139, 230);" x="-100"/>
  <rect y="400" width="100" height="100" style="stroke: rgb(0, 0, 0); fill: rgb(71, 139, 230);" x="-100"/>
  <rect x="300" y="500" width="100" height="100" style="stroke: rgb(0, 0, 0); fill: rgb(71, 139, 230);"/>
  <rect x="300" y="600" width="100" height="100" style="stroke: rgb(0, 0, 0); fill: rgb(71, 139, 230);"/>
  <rect x="200" y="700" width="100" height="100" style="stroke: rgb(0, 0, 0); fill: rgb(71, 139, 230);"/>
  <rect x="100" y="700" width="100" height="100" style="stroke: rgb(0, 0, 0); fill: rgb(71, 139, 230);"/>
  <rect y="700" width="100" height="100" style="stroke: rgb(0, 0, 0); fill: rgb(71, 139, 230);" x="-100"/>
  <rect y="600" width="100" height="100" style="stroke: rgb(0, 0, 0); fill: rgb(71, 139, 230);" x="-100"/>
  <rect y="500" width="100" height="100" style="stroke: rgb(0, 0, 0); fill: rgb(71, 139, 230);" x="-100"/>
  <rect y="400" width="100" height="100" style="stroke: rgb(0, 0, 0); fill: rgb(71, 139, 230);"/>
  <rect y="700" width="100" height="100" style="stroke: rgb(0, 0, 0); fill: rgb(71, 139, 230);"/>
  <rect y="100" width="100" height="100" style="stroke: rgb(0, 0, 0); fill: rgb(71, 139, 230);"/>
</svg>